<mxfile host="Electron" agent="Mozilla/5.0 (X11; Linux x86_64) AppleWebKit/537.36 (KHTML, like Gecko) draw.io/25.0.1 Chrome/128.0.6613.186 Electron/32.2.6 Safari/537.36" version="25.0.1" pages="2">
  <diagram name="contextView" id="2VaDKYVYJieKBY-TXa99">
    <mxGraphModel dx="888" dy="658" grid="1" gridSize="10" guides="1" tooltips="1" connect="1" arrows="1" fold="1" page="1" pageScale="1" pageWidth="827" pageHeight="1169" math="0" shadow="0">
      <root>
        <mxCell id="0" />
        <mxCell id="1" parent="0" />
        <mxCell id="aNUT43WRod8YmrMB5AK5-16" style="edgeStyle=orthogonalEdgeStyle;rounded=0;orthogonalLoop=1;jettySize=auto;html=1;entryX=0;entryY=0.5;entryDx=0;entryDy=0;" edge="1" parent="1" source="hIZ3DXiC1evpzQj_U6RP-1" target="kfGQgEn0DfwO4EppT8DI-1">
          <mxGeometry relative="1" as="geometry" />
        </mxCell>
        <mxCell id="hIZ3DXiC1evpzQj_U6RP-1" value="Enduser" style="shape=umlActor;verticalLabelPosition=bottom;verticalAlign=top;html=1;outlineConnect=0;" parent="1" vertex="1">
          <mxGeometry x="150" y="215" width="30" height="60" as="geometry" />
        </mxCell>
        <mxCell id="aNUT43WRod8YmrMB5AK5-10" style="edgeStyle=orthogonalEdgeStyle;rounded=0;orthogonalLoop=1;jettySize=auto;html=1;" edge="1" parent="1" source="kfGQgEn0DfwO4EppT8DI-1" target="aNUT43WRod8YmrMB5AK5-9">
          <mxGeometry relative="1" as="geometry" />
        </mxCell>
        <mxCell id="aNUT43WRod8YmrMB5AK5-15" value="Inference" style="edgeLabel;html=1;align=center;verticalAlign=middle;resizable=0;points=[];" vertex="1" connectable="0" parent="aNUT43WRod8YmrMB5AK5-10">
          <mxGeometry x="-0.1333" y="-1" relative="1" as="geometry">
            <mxPoint as="offset" />
          </mxGeometry>
        </mxCell>
        <mxCell id="kfGQgEn0DfwO4EppT8DI-1" value="AI-Playground" style="rounded=0;whiteSpace=wrap;html=1;" parent="1" vertex="1">
          <mxGeometry x="375" y="210" width="130" height="70" as="geometry" />
        </mxCell>
        <mxCell id="aNUT43WRod8YmrMB5AK5-2" value="GitHub" style="rounded=0;whiteSpace=wrap;html=1;" vertex="1" parent="1">
          <mxGeometry x="190" y="30" width="120" height="50" as="geometry" />
        </mxCell>
        <mxCell id="aNUT43WRod8YmrMB5AK5-3" value="AI Playground Repository" style="rounded=0;whiteSpace=wrap;html=1;" vertex="1" parent="1">
          <mxGeometry x="380" y="30" width="120" height="50" as="geometry" />
        </mxCell>
        <mxCell id="aNUT43WRod8YmrMB5AK5-4" value="Model Repositories" style="rounded=0;whiteSpace=wrap;html=1;" vertex="1" parent="1">
          <mxGeometry x="580" y="30" width="120" height="50" as="geometry" />
        </mxCell>
        <mxCell id="aNUT43WRod8YmrMB5AK5-6" value="" style="endArrow=classic;html=1;rounded=0;exitX=0.25;exitY=0;exitDx=0;exitDy=0;entryX=0.5;entryY=1;entryDx=0;entryDy=0;" edge="1" parent="1">
          <mxGeometry width="50" height="50" relative="1" as="geometry">
            <mxPoint x="406.5" y="210" as="sourcePoint" />
            <mxPoint x="249" y="80" as="targetPoint" />
          </mxGeometry>
        </mxCell>
        <mxCell id="aNUT43WRod8YmrMB5AK5-11" value="load 3rd Party&lt;div&gt;&amp;nbsp;Extension&lt;/div&gt;" style="edgeLabel;html=1;align=center;verticalAlign=middle;resizable=0;points=[];" vertex="1" connectable="0" parent="aNUT43WRod8YmrMB5AK5-6">
          <mxGeometry x="0.0459" y="3" relative="1" as="geometry">
            <mxPoint as="offset" />
          </mxGeometry>
        </mxCell>
        <mxCell id="aNUT43WRod8YmrMB5AK5-7" value="" style="endArrow=classic;html=1;rounded=0;entryX=0.5;entryY=1;entryDx=0;entryDy=0;exitX=0.5;exitY=0;exitDx=0;exitDy=0;" edge="1" parent="1" source="kfGQgEn0DfwO4EppT8DI-1" target="aNUT43WRod8YmrMB5AK5-3">
          <mxGeometry width="50" height="50" relative="1" as="geometry">
            <mxPoint x="480" y="140" as="sourcePoint" />
            <mxPoint x="490" y="260" as="targetPoint" />
          </mxGeometry>
        </mxCell>
        <mxCell id="aNUT43WRod8YmrMB5AK5-12" value="load additional&lt;div&gt;workflows&lt;/div&gt;" style="edgeLabel;html=1;align=center;verticalAlign=middle;resizable=0;points=[];" vertex="1" connectable="0" parent="aNUT43WRod8YmrMB5AK5-7">
          <mxGeometry x="0.0308" y="3" relative="1" as="geometry">
            <mxPoint x="1" as="offset" />
          </mxGeometry>
        </mxCell>
        <mxCell id="aNUT43WRod8YmrMB5AK5-8" value="" style="endArrow=classic;html=1;rounded=0;exitX=0.815;exitY=0;exitDx=0;exitDy=0;entryX=0.5;entryY=1;entryDx=0;entryDy=0;exitPerimeter=0;" edge="1" parent="1" source="kfGQgEn0DfwO4EppT8DI-1" target="aNUT43WRod8YmrMB5AK5-4">
          <mxGeometry width="50" height="50" relative="1" as="geometry">
            <mxPoint x="418" y="220" as="sourcePoint" />
            <mxPoint x="260" y="90" as="targetPoint" />
          </mxGeometry>
        </mxCell>
        <mxCell id="aNUT43WRod8YmrMB5AK5-13" value="load models" style="edgeLabel;html=1;align=center;verticalAlign=middle;resizable=0;points=[];" vertex="1" connectable="0" parent="aNUT43WRod8YmrMB5AK5-8">
          <mxGeometry x="0.1687" y="-3" relative="1" as="geometry">
            <mxPoint as="offset" />
          </mxGeometry>
        </mxCell>
        <mxCell id="aNUT43WRod8YmrMB5AK5-9" value="AI Model" style="rounded=0;whiteSpace=wrap;html=1;" vertex="1" parent="1">
          <mxGeometry x="380" y="400" width="120" height="50" as="geometry" />
        </mxCell>
      </root>
    </mxGraphModel>
  </diagram>
  <diagram id="qB6n4uea4WUcXAivz8Iy" name="ComponentView">
    <mxGraphModel dx="888" dy="1827" grid="1" gridSize="10" guides="1" tooltips="1" connect="1" arrows="1" fold="1" page="1" pageScale="1" pageWidth="827" pageHeight="1169" math="0" shadow="0">
      <root>
        <mxCell id="0" />
        <mxCell id="1" parent="0" />
        <mxCell id="xHjBHiXRFI0jYKj-1Q84-2" value="Enduser" style="shape=umlActor;verticalLabelPosition=bottom;verticalAlign=top;html=1;outlineConnect=0;" vertex="1" parent="1">
          <mxGeometry x="30" y="225" width="30" height="60" as="geometry" />
        </mxCell>
        <mxCell id="xHjBHiXRFI0jYKj-1Q84-5" value="" style="rounded=0;whiteSpace=wrap;html=1;" vertex="1" parent="1">
          <mxGeometry x="210" y="170" width="460" height="260" as="geometry" />
        </mxCell>
        <mxCell id="xHjBHiXRFI0jYKj-1Q84-6" value="GitHub" style="rounded=0;whiteSpace=wrap;html=1;" vertex="1" parent="1">
          <mxGeometry x="190" y="60" width="120" height="50" as="geometry" />
        </mxCell>
        <mxCell id="xHjBHiXRFI0jYKj-1Q84-7" value="AI Playground Github Repository" style="rounded=0;whiteSpace=wrap;html=1;" vertex="1" parent="1">
          <mxGeometry x="380" y="60" width="120" height="50" as="geometry" />
        </mxCell>
        <mxCell id="xHjBHiXRFI0jYKj-1Q84-8" value="Model Repositories" style="rounded=0;whiteSpace=wrap;html=1;" vertex="1" parent="1">
          <mxGeometry x="580" y="60" width="120" height="50" as="geometry" />
        </mxCell>
        <mxCell id="xHjBHiXRFI0jYKj-1Q84-15" value="AI Model" style="rounded=0;whiteSpace=wrap;html=1;" vertex="1" parent="1">
          <mxGeometry x="380" y="510" width="120" height="50" as="geometry" />
        </mxCell>
        <mxCell id="xHjBHiXRFI0jYKj-1Q84-16" value="&lt;font style=&quot;font-size: 16px;&quot;&gt;AI Playground&lt;/font&gt;" style="text;html=1;align=center;verticalAlign=middle;whiteSpace=wrap;rounded=0;rotation=90;" vertex="1" parent="1">
          <mxGeometry x="560" y="250" width="140" height="30" as="geometry" />
        </mxCell>
        <mxCell id="xHjBHiXRFI0jYKj-1Q84-17" value="" style="rounded=0;whiteSpace=wrap;html=1;" vertex="1" parent="1">
          <mxGeometry x="250" y="190" width="320" height="100" as="geometry" />
        </mxCell>
        <mxCell id="xHjBHiXRFI0jYKj-1Q84-34" style="edgeStyle=orthogonalEdgeStyle;rounded=0;orthogonalLoop=1;jettySize=auto;html=1;entryX=0.5;entryY=0;entryDx=0;entryDy=0;" edge="1" parent="1" source="xHjBHiXRFI0jYKj-1Q84-18" target="xHjBHiXRFI0jYKj-1Q84-8">
          <mxGeometry relative="1" as="geometry">
            <Array as="points">
              <mxPoint x="120" y="380" />
              <mxPoint x="120" y="-10" />
              <mxPoint x="640" y="-10" />
            </Array>
          </mxGeometry>
        </mxCell>
        <mxCell id="xHjBHiXRFI0jYKj-1Q84-35" value="Load Models" style="edgeLabel;html=1;align=center;verticalAlign=middle;resizable=0;points=[];" vertex="1" connectable="0" parent="xHjBHiXRFI0jYKj-1Q84-34">
          <mxGeometry x="0.5219" y="-1" relative="1" as="geometry">
            <mxPoint as="offset" />
          </mxGeometry>
        </mxCell>
        <mxCell id="xHjBHiXRFI0jYKj-1Q84-18" value="aiPlayground&lt;div&gt;Backend&lt;/div&gt;" style="rounded=0;whiteSpace=wrap;html=1;" vertex="1" parent="1">
          <mxGeometry x="263.5" y="350" width="120" height="50" as="geometry" />
        </mxCell>
        <mxCell id="xHjBHiXRFI0jYKj-1Q84-19" value="aiPlayground&lt;div&gt;Backend&lt;/div&gt;" style="rounded=0;whiteSpace=wrap;html=1;" vertex="1" parent="1">
          <mxGeometry x="430" y="330" width="120" height="50" as="geometry" />
        </mxCell>
        <mxCell id="xHjBHiXRFI0jYKj-1Q84-21" value="aiPlayground&lt;div&gt;Backend&lt;/div&gt;" style="rounded=0;whiteSpace=wrap;html=1;" vertex="1" parent="1">
          <mxGeometry x="440" y="340" width="120" height="50" as="geometry" />
        </mxCell>
        <mxCell id="xHjBHiXRFI0jYKj-1Q84-22" value="3rd Party Inference Service" style="rounded=0;whiteSpace=wrap;html=1;" vertex="1" parent="1">
          <mxGeometry x="450" y="350" width="120" height="50" as="geometry" />
        </mxCell>
        <mxCell id="xHjBHiXRFI0jYKj-1Q84-39" style="edgeStyle=orthogonalEdgeStyle;rounded=0;orthogonalLoop=1;jettySize=auto;html=1;" edge="1" parent="1" source="xHjBHiXRFI0jYKj-1Q84-24" target="xHjBHiXRFI0jYKj-1Q84-25">
          <mxGeometry relative="1" as="geometry" />
        </mxCell>
        <mxCell id="xHjBHiXRFI0jYKj-1Q84-24" value="&lt;div&gt;Browser&lt;/div&gt;Window" style="rounded=0;whiteSpace=wrap;html=1;" vertex="1" parent="1">
          <mxGeometry x="263.5" y="230" width="120" height="50" as="geometry" />
        </mxCell>
        <mxCell id="xHjBHiXRFI0jYKj-1Q84-40" style="edgeStyle=orthogonalEdgeStyle;rounded=0;orthogonalLoop=1;jettySize=auto;html=1;entryX=1;entryY=0.5;entryDx=0;entryDy=0;" edge="1" parent="1" source="xHjBHiXRFI0jYKj-1Q84-25" target="xHjBHiXRFI0jYKj-1Q84-24">
          <mxGeometry relative="1" as="geometry" />
        </mxCell>
        <mxCell id="xHjBHiXRFI0jYKj-1Q84-25" value="MainProcess" style="rounded=0;whiteSpace=wrap;html=1;" vertex="1" parent="1">
          <mxGeometry x="410" y="230" width="120" height="50" as="geometry" />
        </mxCell>
        <mxCell id="xHjBHiXRFI0jYKj-1Q84-26" value="Electron Application" style="text;html=1;align=center;verticalAlign=middle;whiteSpace=wrap;rounded=0;" vertex="1" parent="1">
          <mxGeometry x="260" y="190" width="123.5" height="30" as="geometry" />
        </mxCell>
        <mxCell id="xHjBHiXRFI0jYKj-1Q84-28" value="" style="endArrow=classic;html=1;rounded=0;entryX=0.317;entryY=0.04;entryDx=0;entryDy=0;entryPerimeter=0;" edge="1" parent="1" source="xHjBHiXRFI0jYKj-1Q84-25" target="xHjBHiXRFI0jYKj-1Q84-19">
          <mxGeometry width="50" height="50" relative="1" as="geometry">
            <mxPoint x="30" y="520" as="sourcePoint" />
            <mxPoint x="80" y="470" as="targetPoint" />
          </mxGeometry>
        </mxCell>
        <mxCell id="xHjBHiXRFI0jYKj-1Q84-29" value="" style="endArrow=classic;html=1;rounded=0;exitX=0.5;exitY=1;exitDx=0;exitDy=0;entryX=0.592;entryY=0.04;entryDx=0;entryDy=0;entryPerimeter=0;" edge="1" parent="1" source="xHjBHiXRFI0jYKj-1Q84-25" target="xHjBHiXRFI0jYKj-1Q84-18">
          <mxGeometry width="50" height="50" relative="1" as="geometry">
            <mxPoint x="40" y="530" as="sourcePoint" />
            <mxPoint x="90" y="480" as="targetPoint" />
          </mxGeometry>
        </mxCell>
        <mxCell id="xHjBHiXRFI0jYKj-1Q84-30" value="" style="endArrow=classic;html=1;rounded=0;exitX=0.5;exitY=1;exitDx=0;exitDy=0;entryX=0;entryY=0.75;entryDx=0;entryDy=0;" edge="1" parent="1" source="xHjBHiXRFI0jYKj-1Q84-24" target="xHjBHiXRFI0jYKj-1Q84-19">
          <mxGeometry width="50" height="50" relative="1" as="geometry">
            <mxPoint x="50" y="540" as="sourcePoint" />
            <mxPoint x="100" y="490" as="targetPoint" />
          </mxGeometry>
        </mxCell>
        <mxCell id="xHjBHiXRFI0jYKj-1Q84-31" value="" style="endArrow=classic;html=1;rounded=0;exitX=0.5;exitY=1;exitDx=0;exitDy=0;entryX=0.5;entryY=0;entryDx=0;entryDy=0;" edge="1" parent="1" source="xHjBHiXRFI0jYKj-1Q84-24" target="xHjBHiXRFI0jYKj-1Q84-18">
          <mxGeometry width="50" height="50" relative="1" as="geometry">
            <mxPoint x="60" y="550" as="sourcePoint" />
            <mxPoint x="110" y="500" as="targetPoint" />
          </mxGeometry>
        </mxCell>
        <mxCell id="xHjBHiXRFI0jYKj-1Q84-32" value="" style="endArrow=classic;html=1;rounded=0;exitX=0.5;exitY=1;exitDx=0;exitDy=0;entryX=0;entryY=0.25;entryDx=0;entryDy=0;" edge="1" parent="1" source="xHjBHiXRFI0jYKj-1Q84-24" target="xHjBHiXRFI0jYKj-1Q84-22">
          <mxGeometry width="50" height="50" relative="1" as="geometry">
            <mxPoint x="50" y="540" as="sourcePoint" />
            <mxPoint x="100" y="490" as="targetPoint" />
          </mxGeometry>
        </mxCell>
        <mxCell id="xHjBHiXRFI0jYKj-1Q84-33" value="" style="endArrow=classic;html=1;rounded=0;exitX=0.5;exitY=1;exitDx=0;exitDy=0;entryX=0;entryY=0.5;entryDx=0;entryDy=0;" edge="1" parent="1" source="xHjBHiXRFI0jYKj-1Q84-24" target="xHjBHiXRFI0jYKj-1Q84-21">
          <mxGeometry width="50" height="50" relative="1" as="geometry">
            <mxPoint x="60" y="550" as="sourcePoint" />
            <mxPoint x="110" y="500" as="targetPoint" />
          </mxGeometry>
        </mxCell>
        <mxCell id="xHjBHiXRFI0jYKj-1Q84-11" value="" style="endArrow=classic;html=1;rounded=0;entryX=0.5;entryY=1;entryDx=0;entryDy=0;exitX=0.25;exitY=0;exitDx=0;exitDy=0;" edge="1" parent="1" source="xHjBHiXRFI0jYKj-1Q84-25" target="xHjBHiXRFI0jYKj-1Q84-7">
          <mxGeometry width="50" height="50" relative="1" as="geometry">
            <mxPoint x="480" y="140" as="sourcePoint" />
            <mxPoint x="490" y="260" as="targetPoint" />
          </mxGeometry>
        </mxCell>
        <mxCell id="xHjBHiXRFI0jYKj-1Q84-12" value="load additional&lt;div&gt;workflows&lt;/div&gt;" style="edgeLabel;html=1;align=center;verticalAlign=middle;resizable=0;points=[];" vertex="1" connectable="0" parent="xHjBHiXRFI0jYKj-1Q84-11">
          <mxGeometry x="0.0308" y="3" relative="1" as="geometry">
            <mxPoint x="3" y="-23" as="offset" />
          </mxGeometry>
        </mxCell>
        <mxCell id="xHjBHiXRFI0jYKj-1Q84-9" value="" style="endArrow=classic;html=1;rounded=0;exitX=0.25;exitY=0;exitDx=0;exitDy=0;entryX=0.5;entryY=1;entryDx=0;entryDy=0;" edge="1" parent="1" source="xHjBHiXRFI0jYKj-1Q84-25" target="xHjBHiXRFI0jYKj-1Q84-6">
          <mxGeometry width="50" height="50" relative="1" as="geometry">
            <mxPoint x="406.5" y="210" as="sourcePoint" />
            <mxPoint x="249" y="80" as="targetPoint" />
          </mxGeometry>
        </mxCell>
        <mxCell id="xHjBHiXRFI0jYKj-1Q84-10" value="load 3rd Party&lt;div&gt;&amp;nbsp;Extensions&lt;/div&gt;" style="edgeLabel;html=1;align=center;verticalAlign=middle;resizable=0;points=[];" vertex="1" connectable="0" parent="xHjBHiXRFI0jYKj-1Q84-9">
          <mxGeometry x="0.0459" y="3" relative="1" as="geometry">
            <mxPoint x="-28" y="-24" as="offset" />
          </mxGeometry>
        </mxCell>
        <mxCell id="xHjBHiXRFI0jYKj-1Q84-36" style="edgeStyle=orthogonalEdgeStyle;rounded=0;orthogonalLoop=1;jettySize=auto;html=1;" edge="1" parent="1" source="xHjBHiXRFI0jYKj-1Q84-2" target="xHjBHiXRFI0jYKj-1Q84-24">
          <mxGeometry relative="1" as="geometry" />
        </mxCell>
        <mxCell id="xHjBHiXRFI0jYKj-1Q84-37" value="" style="endArrow=classic;html=1;rounded=0;entryX=0.317;entryY=0.04;entryDx=0;entryDy=0;entryPerimeter=0;exitX=0.5;exitY=1;exitDx=0;exitDy=0;" edge="1" parent="1" source="xHjBHiXRFI0jYKj-1Q84-25">
          <mxGeometry width="50" height="50" relative="1" as="geometry">
            <mxPoint x="479" y="290" as="sourcePoint" />
            <mxPoint x="478" y="342" as="targetPoint" />
          </mxGeometry>
        </mxCell>
        <mxCell id="xHjBHiXRFI0jYKj-1Q84-38" value="" style="endArrow=classic;html=1;rounded=0;entryX=0.317;entryY=0.04;entryDx=0;entryDy=0;entryPerimeter=0;exitX=0.5;exitY=1;exitDx=0;exitDy=0;" edge="1" parent="1" source="xHjBHiXRFI0jYKj-1Q84-25">
          <mxGeometry width="50" height="50" relative="1" as="geometry">
            <mxPoint x="480" y="290" as="sourcePoint" />
            <mxPoint x="488" y="352" as="targetPoint" />
          </mxGeometry>
        </mxCell>
        <mxCell id="Dr2zUCnGgoubKgIT7mOK-1" value="" style="endArrow=classic;html=1;rounded=0;exitX=0.5;exitY=1;exitDx=0;exitDy=0;entryX=0.333;entryY=0.01;entryDx=0;entryDy=0;entryPerimeter=0;" edge="1" parent="1" source="xHjBHiXRFI0jYKj-1Q84-18" target="xHjBHiXRFI0jYKj-1Q84-15">
          <mxGeometry width="50" height="50" relative="1" as="geometry">
            <mxPoint x="390" y="320" as="sourcePoint" />
            <mxPoint x="440" y="270" as="targetPoint" />
          </mxGeometry>
        </mxCell>
        <mxCell id="Dr2zUCnGgoubKgIT7mOK-3" value="Inference" style="edgeLabel;html=1;align=center;verticalAlign=middle;resizable=0;points=[];" vertex="1" connectable="0" parent="Dr2zUCnGgoubKgIT7mOK-1">
          <mxGeometry x="0.0076" y="-3" relative="1" as="geometry">
            <mxPoint as="offset" />
          </mxGeometry>
        </mxCell>
        <mxCell id="Dr2zUCnGgoubKgIT7mOK-2" value="" style="endArrow=classic;html=1;rounded=0;exitX=0.5;exitY=1;exitDx=0;exitDy=0;entryX=0.583;entryY=0;entryDx=0;entryDy=0;entryPerimeter=0;" edge="1" parent="1" source="xHjBHiXRFI0jYKj-1Q84-22" target="xHjBHiXRFI0jYKj-1Q84-15">
          <mxGeometry width="50" height="50" relative="1" as="geometry">
            <mxPoint x="334" y="410" as="sourcePoint" />
            <mxPoint x="430" y="521" as="targetPoint" />
          </mxGeometry>
        </mxCell>
        <mxCell id="Dr2zUCnGgoubKgIT7mOK-4" value="Inference" style="edgeLabel;html=1;align=center;verticalAlign=middle;resizable=0;points=[];" vertex="1" connectable="0" parent="Dr2zUCnGgoubKgIT7mOK-2">
          <mxGeometry x="-0.0199" y="-3" relative="1" as="geometry">
            <mxPoint as="offset" />
          </mxGeometry>
        </mxCell>
      </root>
    </mxGraphModel>
  </diagram>
</mxfile>
